<svg width="1024" height="1024" viewBox="0 0 1024 1024" fill="none" xmlns="http://www.w3.org/2000/svg">
<rect width="1024" height="1024" fill="white"/>
<g clip-path="url(#clip0_23_9)">
<path d="M311.243 511.974C311.223 500.726 313.422 489.584 317.714 479.187C322.005 468.789 328.304 459.34 336.252 451.379C344.199 443.419 353.637 437.103 364.028 432.794C374.418 428.486 385.556 426.268 396.804 426.268H396.32C407.568 426.268 418.706 428.486 429.097 432.794C439.487 437.103 448.925 443.419 456.873 451.379C464.82 459.34 471.119 468.789 475.41 479.187C479.702 489.584 481.901 500.726 481.882 511.974C481.882 534.667 472.867 556.43 456.821 572.476C440.775 588.522 419.012 597.536 396.32 597.536H396.804C374.112 597.536 352.349 588.522 336.303 572.476C320.257 556.43 311.243 534.667 311.243 511.974ZM711.547 360.268H870.855C893.547 360.268 915.31 351.254 931.356 335.208C947.402 319.162 956.417 297.399 956.417 274.707C956.436 263.459 954.237 252.317 949.945 241.919C945.654 231.522 939.355 222.072 931.408 214.112C923.461 206.151 914.022 199.836 903.632 195.527C893.241 191.218 882.103 189 870.855 189H711.547C700.299 189 689.161 191.218 678.77 195.527C668.38 199.836 658.941 206.151 650.994 214.112C643.047 222.072 636.748 231.522 632.457 241.919C628.165 252.317 625.966 263.459 625.985 274.707C625.985 297.399 635 319.162 651.046 335.208C667.092 351.254 688.855 360.268 711.547 360.268ZM164.379 834.804H473.795C496.487 834.804 518.25 825.789 534.296 809.743C550.342 793.697 559.357 771.934 559.357 749.242C559.376 737.994 557.177 726.852 552.885 716.455C548.594 706.057 542.295 696.608 534.348 688.647C526.401 680.686 516.962 674.371 506.572 670.062C496.181 665.753 485.043 663.535 473.795 663.535H164.379C153.13 663.535 141.992 665.753 131.602 670.062C121.212 674.371 111.773 680.686 103.826 688.647C95.8791 696.608 89.5797 706.057 85.2884 716.455C80.997 726.852 78.798 737.994 78.8171 749.242C78.8171 771.934 87.8316 793.697 103.878 809.743C119.923 825.789 141.686 834.804 164.379 834.804ZM570.736 597.536H601L671.696 426.268H631.263L588.168 538.607H587.684L545.314 426.268H502.219L570.736 597.536ZM727.865 597.536H765.634V426.268H727.865V597.536ZM835.362 597.536H956.175V562.818H873.131V527.954H947.459V493.09H873.131V461.131H951.817V426.268H835.604L835.362 597.536ZM112.906 360.414H150.675V222.411H199.581V189H64V222.411H112.906V360.414ZM252.846 360.414H290.615V286.328H363.732V360.414H401.501V189H363.732V252.917H290.373V189H252.846V360.414ZM452.586 360.414H573.641V325.55H490.113V290.686H564.441V255.822H490.113V223.864H568.799V189H452.586V360.414ZM70.0527 597.681H107.58V466.216H108.064L151.644 597.681H180.213L225.245 466.216H225.729V597.681H263.498V426.268H206.603L166.897 538.122H166.412L126.949 426.268H69.8106L70.0527 597.681ZM612.814 834.949H674.117C686.535 835.013 698.886 833.134 710.724 829.38C721.895 825.892 732.321 820.358 741.472 813.062C750.369 805.821 757.589 796.734 762.632 786.43C768.221 775.008 771.072 762.442 770.961 749.726C771.355 735.962 768.572 722.292 762.826 709.778C757.776 699.231 750.271 690.048 740.939 683.001C731.165 675.994 720.083 671.021 708.351 668.377C695.57 665.185 682.448 663.558 669.274 663.535H612.572L612.814 834.949ZM650.632 698.399H672.906C680.545 698.372 688.152 699.382 695.519 701.401C702.292 703.244 708.664 706.331 714.307 710.505C719.67 714.587 724.012 719.858 726.993 725.903C730.32 732.711 731.98 740.213 731.836 747.789C732.043 756.245 730.39 764.642 726.993 772.388C724.098 778.772 719.654 784.331 714.065 788.561C708.28 792.804 701.689 795.819 694.696 797.422C686.757 799.251 678.632 800.145 670.485 800.085H650.39L650.632 698.399ZM825.629 834.949H895.841C903.538 834.932 911.214 834.121 918.744 832.528C926.044 831.072 933.039 828.369 939.421 824.538C945.48 820.922 950.619 815.95 954.431 810.012C958.514 803.177 960.532 795.306 960.242 787.35C960.284 782.068 959.382 776.82 957.579 771.855C955.907 767.166 953.323 762.854 949.977 759.169C946.608 755.478 942.586 752.441 938.113 750.211C933.288 747.746 928.083 746.11 922.715 745.368V744.884C931.031 742.493 938.48 737.751 944.166 731.229C949.734 724.421 952.611 715.806 952.252 707.018C952.638 699.13 950.702 691.301 946.684 684.502C943.078 678.903 938.07 674.346 932.157 671.283C925.833 668.052 919.005 665.923 911.965 664.988C904.536 663.968 897.045 663.45 889.546 663.438H825.629V834.949ZM863.398 695.494H889.062C892.066 695.51 895.063 695.785 898.02 696.317C900.894 696.818 903.671 697.765 906.252 699.125C908.669 700.414 910.719 702.297 912.207 704.597C913.826 707.243 914.618 710.311 914.483 713.41C914.569 716.442 913.868 719.445 912.45 722.126C911.14 724.489 909.259 726.487 906.978 727.936C904.652 729.431 902.077 730.497 899.376 731.084C896.547 731.722 893.656 732.047 890.757 732.052H862.962L863.398 695.494ZM863.398 764.011H891.967C895.289 764.027 898.605 764.27 901.894 764.737C905.226 765.192 908.482 766.087 911.578 767.4C914.56 768.623 917.189 770.57 919.229 773.066C921.311 775.853 922.372 779.273 922.231 782.75C922.354 786.047 921.566 789.314 919.955 792.192C918.471 794.714 916.434 796.866 913.999 798.487C911.544 800.122 908.799 801.272 905.913 801.877C903 802.505 900.031 802.829 897.051 802.845H863.156L863.398 764.011Z" fill="url(#paint0_linear_23_9)"/>
</g>
<defs>
<linearGradient id="paint0_linear_23_9" x1="64" y1="511.974" x2="960" y2="511.974" gradientUnits="userSpaceOnUse">
<stop stop-color="#90CEA1"/>
<stop offset="0.56" stop-color="#3CBEC9"/>
<stop offset="1" stop-color="#00B3E5"/>
</linearGradient>
<clipPath id="clip0_23_9">
<rect width="896" height="645.949" fill="white" transform="translate(64 189)"/>
</clipPath>
</defs>
</svg>
